<svg version="1.1" xmlns="http://www.w3.org/2000/svg" xmlns:xlink="http://www.w3.org/1999/xlink" width="280.03283" height="62.2184" viewBox="0,0,280.03283,62.2184"><g transform="translate(-99.98359,-148.89079)"><g fill="#ffffff" stroke="none" stroke-miterlimit="10"><path d="" stroke-width="1" stroke-linecap="square"/><g><path d="M151.54058,210.25096v-46.12279h9.05295v9.482l-1.54458,1.07264c0.57208,-2.05944 1.70189,-3.94725 3.3895,-5.66345c1.7162,-1.74478 3.74705,-3.16066 6.0925,-4.24757c2.34545,-1.08694 4.74813,-1.63039 7.20803,-1.63039c3.5182,0 6.43574,0.70079 8.75261,2.10236c2.34545,1.37296 4.10457,3.46098 5.27732,6.26412c1.17276,2.80314 1.75912,6.34993 1.75912,10.64042v28.10274h-9.05293v-27.50205c0,-2.63152 -0.35755,-4.80535 -1.07261,-6.52155c-0.68648,-1.74478 -1.75909,-3.00335 -3.21786,-3.77564c-1.45876,-0.80087 -3.27508,-1.14412 -5.44891,-1.02972c-1.74478,0 -3.36089,0.28602 -4.84824,0.8581c-1.45876,0.54344 -2.73161,1.31573 -3.81852,2.31686c-1.08694,0.97249 -1.94504,2.11666 -2.5743,3.4324c-0.60067,1.31573 -0.90099,2.74591 -0.90099,4.29049v27.93113h-4.46211c-0.77229,0 -1.54458,0 -2.31686,0c-0.74371,0 -1.50166,0 -2.27395,0zM223.43049,211.10905c-4.26191,0 -8.08044,-1.04403 -11.45561,-3.13205c-3.37517,-2.11666 -6.04958,-4.99128 -8.02321,-8.62388c-1.94504,-3.6326 -2.91754,-7.70859 -2.91754,-12.22789c0,-4.49069 0.97249,-8.55241 2.91754,-12.185c1.97363,-3.6326 4.64804,-6.50725 8.02324,-8.62388c3.37517,-2.11666 7.19372,-3.17496 11.45563,-3.17496c4.11887,0 7.85162,0.84379 11.1982,2.5314c3.37517,1.65897 5.93519,3.91867 7.67999,6.77898l-4.97697,6.17831c-0.94391,-1.34437 -2.14525,-2.5743 -3.60401,-3.68982c-1.45876,-1.11553 -3.01765,-1.98793 -4.67662,-2.61718c-1.63039,-0.65789 -3.20355,-0.9868 -4.71954,-0.9868c-2.83173,0 -5.34879,0.68648 -7.55127,2.05944c-2.17383,1.37296 -3.90433,3.26077 -5.19148,5.66345c-1.28715,2.40268 -1.93071,5.09137 -1.93071,8.06613c0,3.00335 0.67217,5.69203 2.01654,8.06613c1.34437,2.37409 3.11774,4.26191 5.32021,5.66345c2.23106,1.40154 4.70524,2.10236 7.42257,2.10236c1.57316,0 3.10346,-0.25743 4.59084,-0.77229c1.48736,-0.54344 2.93184,-1.34437 4.33342,-2.40268c1.43018,-1.05831 2.76023,-2.34545 3.99017,-3.86145l4.97697,6.17831c-1.85923,2.63152 -4.53362,4.79105 -8.02321,6.47866c-3.48962,1.68761 -7.10791,2.5314 -10.85493,2.5314zM271.5991,211.10905c-4.51934,0 -8.55241,-1.02972 -12.09919,-3.08915c-3.54679,-2.08802 -6.34993,-4.93406 -8.40936,-8.53807c-2.03086,-3.60401 -3.04623,-7.72289 -3.04623,-12.35662c0,-4.60514 1.01541,-8.70969 3.04627,-12.31371c2.05944,-3.60401 4.86258,-6.45005 8.40936,-8.53807c3.54679,-2.08802 7.57986,-3.13205 12.09919,-3.13205c4.43353,0 8.42368,1.04403 11.97049,3.13208c3.54679,2.08802 6.34993,4.93408 8.40936,8.53809c2.05944,3.60401 3.08915,7.70859 3.08915,12.31373c0,4.63374 -1.02972,8.75261 -3.08915,12.35662c-2.05944,3.60401 -4.86255,6.45005 -8.40936,8.53809c-3.54679,2.05944 -7.53696,3.08915 -11.97046,3.08915zM271.5991,202.87131c2.74591,0 5.20582,-0.68648 7.37965,-2.05944c2.17383,-1.37296 3.87575,-3.24647 5.10567,-5.62053c1.22995,-2.37409 1.81631,-5.06279 1.75912,-8.06613c0.0572,-3.03193 -0.52916,-5.73496 -1.75909,-8.10902c-1.22992,-2.37409 -2.93184,-4.23327 -5.10567,-5.57764c-2.17383,-1.34437 -4.63374,-2.01652 -7.37965,-2.01652c-2.74591,0 -5.2201,0.68648 -7.42254,2.05944c-2.20247,1.37296 -3.91867,3.24647 -5.14859,5.62056c-1.22992,2.37409 -1.81631,5.04847 -1.75909,8.02324c-0.05722,3.00335 0.52916,5.69203 1.75912,8.06613c1.22992,2.37409 2.94612,4.2476 5.14859,5.62056c2.20247,1.37296 4.67665,2.05944 7.42257,2.05944zM304.87284,210.25096v-46.12279h9.13877v14.50187l-0.8581,-3.5182c0.62928,-2.23106 1.7162,-4.24757 3.26077,-6.04958c1.57319,-1.83059 3.36089,-3.27508 5.36313,-4.33338c2.03082,-1.05831 4.13318,-1.58747 6.30704,-1.58747c1.00111,0 1.94501,0.10011 2.83173,0.30035c0.9153,0.17162 1.64469,0.37182 2.18817,0.60067l-2.35976,9.82524c-0.71509,-0.28602 -1.50166,-0.52916 -2.35976,-0.72937c-0.82948,-0.20021 -1.659,-0.30032 -2.48849,-0.30032c-1.57319,0 -3.08915,0.31466 -4.54792,0.94391c-1.43016,0.60067 -2.68872,1.44446 -3.77564,2.5314c-1.05833,1.05831 -1.91643,2.31686 -2.5743,3.77564c-0.65787,1.43018 -0.9868,2.98904 -0.9868,4.67665v25.48553zM359.88942,211.10905c-4.74815,0 -8.95284,-1.00113 -12.61405,-3.00335c-3.66121,-2.03086 -6.53585,-4.80535 -8.62388,-8.32356c-2.05944,-3.5182 -3.08915,-7.55127 -3.08915,-12.09919c0,-3.6326 0.58636,-6.9363 1.75912,-9.91103c1.17272,-3.00335 2.78883,-5.60623 4.84827,-7.8087c2.08805,-2.20247 4.57654,-3.90433 7.46546,-5.10567c2.91754,-1.20134 6.0782,-1.80201 9.482,-1.80201c2.97473,0 5.74926,0.57208 8.32356,1.7162c2.5743,1.14412 4.81966,2.71733 6.73609,4.71954c1.91643,1.97363 3.3752,4.33342 4.3763,7.07933c1.02972,2.71733 1.51596,5.67776 1.45876,8.88133l-0.08581,3.90437h-37.67054l-2.05944,-7.20803h31.92127l-1.33004,1.45876v-2.10233c-0.17162,-1.91641 -0.81518,-3.6326 -1.93071,-5.14859c-1.11553,-1.54458 -2.53138,-2.74591 -4.24757,-3.60401c-1.68758,-0.88668 -3.5182,-1.33004 -5.49183,-1.33004c-3.17496,0 -5.84938,0.60067 -8.02321,1.80201c-2.14525,1.20134 -3.77564,2.96045 -4.89116,5.27732c-1.11553,2.31686 -1.67328,5.1629 -1.67328,8.53809c0,3.23219 0.67217,6.03528 2.01654,8.40936c1.34435,2.37409 3.24647,4.20469 5.70637,5.49183c2.45987,1.28715 5.30591,1.93073 8.53809,1.93073c2.28826,0 4.40492,-0.37182 6.34993,-1.11553c1.97363,-0.77229 4.10457,-2.15955 6.39285,-4.16177l4.54792,6.43574c-1.40157,1.40154 -3.11777,2.63152 -5.14859,3.68982c-2.00224,1.02972 -4.13318,1.85923 -6.39282,2.48849c-2.25967,0.60067 -4.47642,0.90102 -6.65025,0.90102z" stroke-width="1" stroke-linecap="square"/><path d="M99.98359,183.28606v-9.13873h22.98845v9.13877z" stroke-width="1" stroke-linecap="square"/><path d="M100.05937,158.02952v-9.13873h38.74317v9.13877z" stroke-width="0" stroke-linecap="butt"/><path d="M100.05937,210.39809v-9.13873h38.74317v9.13877z" stroke-width="0" stroke-linecap="butt"/></g></g></g></svg>
