<svg version="1.1" xmlns="http://www.w3.org/2000/svg" xmlns:xlink="http://www.w3.org/1999/xlink" width="101.98157" height="22.65854" viewBox="0,0,101.98157,22.65854"><g transform="translate(-189.02343,-168.70097)"><g fill="#ffffff" stroke="none" stroke-miterlimit="10"><g><path d="M207.79931,191.04696v-16.79687h3.29688v3.45313l-0.5625,0.39063c0.20834,-0.75 0.61979,-1.4375 1.23438,-2.0625c0.625,-0.63541 1.36459,-1.15104 2.21875,-1.54687c0.85416,-0.39584 1.72916,-0.59375 2.625,-0.59375c1.28125,0 2.34375,0.25521 3.1875,0.76563c0.85416,0.5 1.49479,1.26041 1.92188,2.28125c0.42709,1.02084 0.64063,2.3125 0.64063,3.875v10.23438h-3.29687v-10.01562c0,-0.95834 -0.13021,-1.75 -0.39062,-2.375c-0.25,-0.63541 -0.64062,-1.09375 -1.17187,-1.375c-0.53125,-0.29166 -1.19271,-0.41666 -1.98437,-0.375c-0.63541,0 -1.22396,0.10416 -1.76562,0.3125c-0.53125,0.19791 -0.99479,0.47916 -1.39062,0.84375c-0.39584,0.35416 -0.70834,0.77084 -0.9375,1.25c-0.21875,0.47916 -0.32812,1 -0.32812,1.5625v10.17188h-1.625c-0.28125,0 -0.5625,0 -0.84375,0c-0.27084,0 -0.54687,0 -0.82812,0zM233.97998,191.35946c-1.55209,0 -2.94271,-0.38021 -4.17187,-1.14062c-1.22916,-0.77084 -2.20312,-1.81771 -2.92187,-3.14062c-0.70834,-1.32291 -1.0625,-2.80729 -1.0625,-4.45312c0,-1.63541 0.35416,-3.11459 1.0625,-4.4375c0.71875,-1.32291 1.69271,-2.36979 2.92188,-3.14062c1.22916,-0.77084 2.61979,-1.15625 4.17188,-1.15625c1.5,0 2.85938,0.30729 4.07813,0.92188c1.22916,0.60416 2.16146,1.42709 2.79688,2.46875l-1.8125,2.25c-0.34375,-0.48959 -0.78125,-0.9375 -1.3125,-1.34375c-0.53125,-0.40625 -1.09896,-0.72396 -1.70312,-0.95312c-0.59375,-0.23959 -1.16666,-0.35937 -1.71875,-0.35937c-1.03125,0 -1.94791,0.25 -2.75,0.75c-0.79166,0.5 -1.42187,1.1875 -1.89062,2.0625c-0.46875,0.875 -0.70312,1.85416 -0.70312,2.9375c0,1.09375 0.24479,2.07291 0.73438,2.9375c0.48959,0.86459 1.13541,1.55209 1.9375,2.0625c0.8125,0.51041 1.71354,0.76563 2.70313,0.76563c0.57291,0 1.13021,-0.09375 1.67188,-0.28125c0.54166,-0.19791 1.06771,-0.48959 1.57813,-0.875c0.52084,-0.38541 1.00521,-0.85416 1.45313,-1.40625l1.8125,2.25c-0.67709,0.95834 -1.65104,1.74479 -2.92187,2.35938c-1.27084,0.61459 -2.58854,0.92188 -3.95312,0.92188zM251.52189,191.35946c-1.64584,0 -3.11459,-0.375 -4.40625,-1.125c-1.29166,-0.76041 -2.3125,-1.79687 -3.0625,-3.10937c-0.73959,-1.3125 -1.10937,-2.8125 -1.10937,-4.5c0,-1.67709 0.36979,-3.17187 1.10938,-4.48437c0.75,-1.3125 1.77084,-2.34896 3.0625,-3.10937c1.29166,-0.76041 2.76041,-1.14062 4.40625,-1.14062c1.61459,0 3.06771,0.38021 4.35938,1.14063c1.29166,0.76041 2.3125,1.79688 3.0625,3.10938c0.75,1.3125 1.125,2.80729 1.125,4.48438c0,1.6875 -0.375,3.1875 -1.125,4.5c-0.75,1.3125 -1.77083,2.34896 -3.0625,3.10938c-1.29166,0.75 -2.74479,1.125 -4.35937,1.125zM251.52189,188.35946c1,0 1.89584,-0.25 2.6875,-0.75c0.79166,-0.5 1.41146,-1.18229 1.85937,-2.04687c0.44792,-0.86459 0.66146,-1.84375 0.64063,-2.9375c0.02083,-1.10416 -0.19271,-2.08854 -0.64062,-2.95312c-0.44791,-0.86459 -1.06771,-1.54166 -1.85937,-2.03125c-0.79166,-0.48959 -1.6875,-0.73437 -2.6875,-0.73437c-1,0 -1.90104,0.25 -2.70312,0.75c-0.80209,0.5 -1.42709,1.18229 -1.875,2.04688c-0.44791,0.86459 -0.66146,1.83854 -0.64062,2.92188c-0.02084,1.09375 0.19271,2.07291 0.64063,2.9375c0.44791,0.86459 1.07291,1.54688 1.875,2.04688c0.80209,0.5 1.70313,0.75 2.70313,0.75zM263.63943,191.04696v-16.79687h3.32813v5.28125l-0.3125,-1.28125c0.22917,-0.8125 0.625,-1.54687 1.1875,-2.20312c0.57292,-0.66666 1.22396,-1.19271 1.95313,-1.57812c0.73958,-0.38541 1.50521,-0.57812 2.29688,-0.57812c0.36458,0 0.70833,0.03646 1.03125,0.10938c0.33333,0.0625 0.59896,0.13541 0.79688,0.21875l-0.85937,3.57813c-0.26042,-0.10416 -0.54687,-0.19271 -0.85937,-0.26562c-0.30208,-0.07291 -0.60417,-0.10937 -0.90625,-0.10937c-0.57292,0 -1.125,0.11459 -1.65625,0.34375c-0.52083,0.21875 -0.97917,0.52604 -1.375,0.92188c-0.38542,0.38541 -0.69792,0.84375 -0.9375,1.375c-0.23958,0.52084 -0.35937,1.08854 -0.35937,1.70313v9.28125zM283.67521,191.35946c-1.72917,0 -3.26042,-0.36459 -4.59375,-1.09375c-1.33333,-0.73959 -2.38021,-1.75 -3.14062,-3.03125c-0.75,-1.28125 -1.125,-2.75 -1.125,-4.40625c0,-1.32291 0.21354,-2.52604 0.64063,-3.60937c0.42708,-1.09375 1.01563,-2.04166 1.76563,-2.84375c0.76042,-0.80209 1.66667,-1.42187 2.71875,-1.85937c1.0625,-0.4375 2.21354,-0.65625 3.45313,-0.65625c1.08333,0 2.09375,0.20834 3.03125,0.625c0.9375,0.41666 1.75521,0.98959 2.45313,1.71875c0.69792,0.71875 1.22917,1.57813 1.59375,2.57813c0.375,0.98959 0.55208,2.06771 0.53125,3.23438l-0.03125,1.42188h-13.71875l-0.75,-2.625h11.625l-0.48437,0.53125v-0.76562c-0.0625,-0.69791 -0.29687,-1.32291 -0.70312,-1.875c-0.40625,-0.5625 -0.92187,-1 -1.54687,-1.3125c-0.61458,-0.32291 -1.28125,-0.48437 -2,-0.48437c-1.15625,0 -2.13021,0.21875 -2.92187,0.65625c-0.78125,0.4375 -1.375,1.07813 -1.78125,1.92188c-0.40625,0.84375 -0.60937,1.88021 -0.60937,3.10938c0,1.17709 0.24479,2.19791 0.73438,3.0625c0.48958,0.86459 1.18229,1.53125 2.07813,2c0.89583,0.46875 1.93229,0.70313 3.10938,0.70313c0.83333,0 1.60417,-0.13541 2.3125,-0.40625c0.71875,-0.28125 1.49479,-0.78646 2.32813,-1.51562l1.65625,2.34375c-0.51042,0.51041 -1.13542,0.95834 -1.875,1.34375c-0.72917,0.375 -1.50521,0.67709 -2.32812,0.90625c-0.82292,0.21875 -1.63021,0.32813 -2.42187,0.32813z" stroke-width="1" stroke-linecap="square"/><path d="M189.02343,181.22695v-3.32812h8.37187v3.32813z" stroke-width="1" stroke-linecap="square"/><path d="" stroke-width="1" stroke-linecap="square"/><path d="M189.05103,172.0291v-3.32812h14.10938v3.32813z" stroke-width="0" stroke-linecap="butt"/><path d="M189.05103,191.10053v-3.32812h14.10938v3.32813z" stroke-width="0" stroke-linecap="butt"/></g></g></g></svg>
